<svg xmlns="http://www.2000/svg" viewBox="0 0 24 24" width="64" height="64" fill="#E62E2D">
    <path d="M20.5 4L22 5.5L18.5 9L17 7.5L20.5 4ZM16.5 6L14 3.5L12.5 5L15 7.5L16.5 6ZM19 11.5L20.5 10L18 7.5L16.5 9L19 11.5ZM5.5 22L4 20.5L7.5 17L9 18.5L5.5 22ZM7.5 20L10 22.5L11.5 21L9 18.5L7.5 20ZM5 14.5L3.5 16L6 18.5L7.5 17L5 14.5ZM16.5 10.5L15.5 11.5L12.5 8.5L13.5 7.5L16.5 10.5ZM10.5 16.5L11.5 15.5L8.5 12.5L7.5 13.5L10.5 16.5ZM14.5 12.5L11.5 15.5L8.5 12.5L11.5 9.5L14.5 12.5Z" />
    <rect x="7" y="10.5" width="10" height="3" transform="rotate(-45 12 12)" fill="#E62E2D" />
</svg>
